<svg xmlns="http://www.w3.org/2000/svg" viewBox="0 0 219.786 219.786" height='25' style="fill:#403F3F;" >
<path d="M109.88 183.46a7.5 7.5 0 0 0-7.5 7.5v21.324a7.5 7.5 0 1 0 15 0V190.96a7.5 7.5 0 0 0-7.5-7.5zm0-147.13a7.5 7.5 0 0 0 7.5-7.5V7.503a7.5 7.5 0 1 0-15 0V28.83a7.5 7.5 0 0 0 7.5 7.5zM47.27 161.9l-15.084 15.076a7.5 7.5 0 0 0-.003 10.606 7.48 7.48 0 0 0 10.607.003l15.084-15.076a7.5 7.5 0 0 0 .003-10.606c-2.93-2.93-7.678-2.93-10.607-.003zM167.208 60.067a7.48 7.48 0 0 0 5.303-2.196l15.082-15.076a7.5 7.5 0 1 0-10.605-10.608l-15.082 15.076a7.5 7.5 0 0 0-.002 10.606 7.47 7.47 0 0 0 5.304 2.198zM36.324 109.895a7.5 7.5 0 0 0-7.5-7.5H7.5a7.5 7.5 0 1 0 0 15h21.324a7.5 7.5 0 0 0 7.5-7.5zm175.962-7.5h-21.334a7.5 7.5 0 1 0 0 15h21.334a7.5 7.5 0 1 0 0-15zM47.267 57.87c1.464 1.464 3.384 2.196 5.303 2.196s3.84-.732 5.303-2.196a7.5 7.5 0 0 0 0-10.607L42.797 32.188a7.5 7.5 0 0 0-10.606 10.606L47.267 57.87zM172.52 161.9a7.5 7.5 0 0 0-10.608 10.605l15.074 15.076c1.465 1.465 3.384 2.197 5.304 2.197s3.84-.732 5.303-2.196a7.5 7.5 0 0 0 .001-10.606L172.52 161.9zM109.9 51.518c-32.187 0-58.373 26.188-58.373 58.377S77.703 168.27 109.9 168.27s58.378-26.187 58.378-58.375-26.2-58.377-58.378-58.377zm0 101.752c-23.916 0-43.373-19.458-43.373-43.375S85.974 66.518 109.9 66.518s43.378 19.46 43.378 43.377-19.46 43.375-43.378 43.375z"/>
</svg>